<svg id="레이어_1" data-name="레이어 1" xmlns="http://www.w3.org/2000/svg" viewBox="0 0 74 20"><defs><style>.cls-1,.cls-2{fill:#fff;}.cls-2{opacity:0.5;}</style></defs><rect class="cls-1" x="6.82" y="9.82" width="3.39" height="3.39"/><rect class="cls-1" x="6.82" y="6.43" width="3.39" height="3.39"/><rect class="cls-1" x="6.82" y="13.21" width="3.39" height="3.39"/><rect class="cls-1" x="10.21" y="9.82" width="3.39" height="3.39"/><rect class="cls-1" x="10.21" y="3.04" width="3.39" height="3.39"/><rect class="cls-2" x="10.21" y="16.61" width="3.39" height="3.39"/><rect class="cls-1" x="13.61" y="6.43" width="3.39" height="3.39"/><rect class="cls-1" x="13.61" y="13.21" width="3.39" height="3.39"/><rect class="cls-1" x="0.04" y="6.43" width="3.39" height="3.39"/><rect class="cls-1" x="0.04" y="13.21" width="3.39" height="3.39"/><rect class="cls-1" x="3.43" y="9.82" width="3.39" height="3.39"/><rect class="cls-2" x="3.43" y="3.04" width="3.39" height="3.39"/><rect class="cls-1" x="3.43" y="16.61" width="3.39" height="3.39"/><path class="cls-1" d="M21.65,7.05h3.73V8.76h.05A3,3,0,0,1,26,8a4,4,0,0,1,.8-.65,4.91,4.91,0,0,1,1.06-.46,4.47,4.47,0,0,1,1.29-.18,4.94,4.94,0,0,1,2.35.54A3.45,3.45,0,0,1,33,9a4.16,4.16,0,0,1,1.63-1.73,5.61,5.61,0,0,1,4.49-.1,3.5,3.5,0,0,1,1.37,1.17,4.91,4.91,0,0,1,.73,1.73,9.76,9.76,0,0,1,.22,2.14v7.43H37.55V12.3a2.92,2.92,0,0,0-.38-1.51,1.43,1.43,0,0,0-1.33-.63,2.53,2.53,0,0,0-1.13.22A1.76,1.76,0,0,0,34,11a2.33,2.33,0,0,0-.39.91A4.86,4.86,0,0,0,33.48,13v6.65H29.6V13c0-.23,0-.5,0-.83a3.49,3.49,0,0,0-.18-.93,1.63,1.63,0,0,0-.51-.75,1.47,1.47,0,0,0-1-.31,2.38,2.38,0,0,0-1.21.27,1.85,1.85,0,0,0-.72.72,3,3,0,0,0-.32,1,9.18,9.18,0,0,0-.08,1.2v6.26H21.65Z"/><path class="cls-1" d="M60.33.06h3.88V8.39h.05A3.67,3.67,0,0,1,66,7.11a6.66,6.66,0,0,1,2.26-.37,5.13,5.13,0,0,1,2.41.55,5.66,5.66,0,0,1,1.8,1.49,7.08,7.08,0,0,1,1.14,2.14,7.82,7.82,0,0,1,.4,2.52,7.62,7.62,0,0,1-.44,2.62,5.93,5.93,0,0,1-1.26,2.06,5.57,5.57,0,0,1-2,1.34,6.5,6.5,0,0,1-2.54.48,4.38,4.38,0,0,1-1.27-.18,5.66,5.66,0,0,1-1.1-.46,5,5,0,0,1-.88-.64A4.2,4.2,0,0,1,64,18H63.9v1.66H60.33ZM63.9,13.34a3.21,3.21,0,0,0,.82,2.3,3.42,3.42,0,0,0,4.58,0,3.25,3.25,0,0,0,.82-2.3A3.25,3.25,0,0,0,69.3,11a3.42,3.42,0,0,0-4.58,0A3.21,3.21,0,0,0,63.9,13.34Z"/><rect class="cls-2" x="52.83" y="6.63" width="4.6" height="4.6"/><path class="cls-1" d="M53.8,13a3.12,3.12,0,1,1-3.12-3.18V6.42a6.8,6.8,0,0,0-7,6.61,7,7,0,0,0,13.95,0Z"/></svg>